<?xml version="1.0" encoding="UTF-8"?>
<svg xmlns="http://www.w3.org/2000/svg" viewBox="0 0 1014 1183" width="1014" height="1183">
<path d="M741.51 116.13C711.03 133.77 680.54 151.4 650.05 169.04C649.66 169.04 649.27 169.03 648.87 169.02C630.28 167.47 611.18 169.03 592.5 168.83C556.84 168.45 521.16 168.72 485.5 168.72C471.67 168.72 457.3 169.87 443.53 168.83C438.44 168.45 433.05 165.85 428.17 164.43C416.84 161.14 405.56 157.7 394.24 154.37C354.36 142.59 314.36 131.1 274.5 119.16C273.29 117.75 273.12 118.11 273.11 115.84C289.47 107.99 307.29 102.27 324.22 95.67C358.94 82.13 393.64 68.46 428.29 54.73C445.96 47.73 463.7 40.92 481.34 33.84C486.03 31.96 502.76 24.27 506.53 24.02C510.14 23.78 522.88 29.88 526.95 31.52C542.21 37.64 557.59 43.44 572.85 49.56C612.01 65.25 651.44 80.29 690.67 95.82C701.67 100.17 712.68 104.46 723.68 108.8C729.56 111.11 736.12 112.88 741.51 116.13ZM271.96 116.07C272 119.35 272.05 122.63 272.1 125.91C270.36 187.11 268.62 248.3 266.88 309.5C299.59 316.04 332.29 322.59 364.99 329.13C331.64 349.09 298.28 369.05 264.93 389.01C219.97 415.39 175.01 441.76 130.05 468.13C99.34 486 68.62 503.87 37.9 521.73C37.46 517.36 37.99 512.91 38.06 508.5C38.25 496.15 38.87 483.84 39.12 471.5C39.68 443.83 40.32 416.15 41.19 388.5C41.6 375.2 41.65 361.83 42.23 348.53C42.47 342.87 43.14 337.18 43.03 331.5C42.13 284.07 42.61 236.13 42.61 188.5C42.61 171.15 42.31 153.85 42.31 136.5C42.31 128.77 41.87 120.87 42.5 113.18C52.24 111.09 63.51 112.65 73.5 112.84C92.52 113.21 111.51 113.29 130.5 113.77C161.81 114.57 193.18 114.75 224.5 115.09C240.24 115.26 256.26 114.86 271.96 116.07Z" fill="#e4f5da" stroke="#e4f5da" stroke-width="1" stroke-linejoin="round" />
<path d="M616.02 728.04C629.72 747.63 642.01 768.61 654.48 789.01C671.87 817.48 690.51 845.16 707.83 873.66C715.99 887.09 724.46 900.37 732.95 913.59C735.45 917.49 738.62 925.47 742.91 927C664.44 999.74 585.97 1072.48 507.5 1145.23C500.52 1141.64 487.85 1128.01 481.45 1122.02C462.7 1104.45 443.85 1086.94 424.88 1069.61C389.18 1037 353.77 1004.05 318.39 971.09C309.08 962.43 299.85 953.57 290.34 945.13C284.56 940 278.08 934.85 273.03 929.03C273.18 928.68 273.32 928.34 273.46 928C387.65 861.35 501.83 794.69 616.02 728.04Z" fill="#1c4006" stroke="#1c4006" stroke-width="1" stroke-linejoin="round" />
<path d="M976.08 521.8C972.13 520.79 968.19 519.77 964.24 518.76C924.55 506.17 884.86 493.59 845.16 481C844.77 480.67 844.37 480.35 843.97 480.02C779.33 376.36 714.69 272.7 650.05 169.04C680.54 151.4 711.03 133.77 741.51 116.13C817.84 114.98 894.17 113.83 970.5 112.68C971.5 118.44 970.99 124.62 970.99 130.5C970.99 140.83 971 151.17 970.99 161.5C970.97 193.5 970.95 225.5 970.95 257.5C970.95 280.8 971.61 304.3 971.44 327.5C971.4 332.41 970.92 337.49 971.01 342.5C972.08 402.25 974.51 462.05 976.08 521.8ZM335.83 521.01C326.58 580.71 317.32 640.4 308.07 700.1C279.34 662.71 250.61 625.31 221.88 587.92C259.87 565.62 297.85 543.31 335.83 521.01Z" fill="#8ec76b" stroke="#8ec76b" stroke-width="1" stroke-linejoin="round" />
<path d="M440.07 448.95C454.71 472.13 469.35 495.32 484 518.5C592.67 518.74 701.35 518.99 810.02 519.23C745.35 588.83 680.69 658.44 616.02 728.04C572.18 658.67 528.34 589.3 484.5 519.93C463.06 559.53 443.16 599.99 422.46 639.97C390.96 700.82 359.32 761.6 328.07 822.58C315.22 847.67 302.28 872.74 289.22 897.72C285.9 904.08 282.72 910.51 279.38 916.85C277.97 919.54 277.01 923.07 274.21 924C285.5 849.37 296.78 774.73 308.07 700.1C317.32 640.4 326.58 580.71 335.83 521.01C335.91 520.4 335.99 519.79 336.07 519.18C340.15 518.43 343.64 515.75 347.2 513.67C355.17 509.01 362.63 503.98 370.13 498.6C385.84 487.33 401.58 476.12 417.34 464.94C424.83 459.64 432.09 453.45 440.07 448.95ZM845.16 481C884.86 493.59 924.55 506.17 964.24 518.76C913.49 518.81 862.75 518.85 812 518.9C823.05 506.27 834.11 493.63 845.16 481Z" fill="#357d0a" stroke="#357d0a" stroke-width="1" stroke-linejoin="round" />
<path d="M810.02 519.23C810.68 519.12 811.34 519.01 812 518.9C862.75 518.85 913.49 518.81 964.24 518.76C968.19 519.77 972.13 520.79 976.08 521.8C976.71 523.96 974.03 527.09 972.77 529.27C969.22 535.4 965.65 541.51 962.14 547.66C947.77 572.88 933.04 597.89 918.58 623.07C879.95 690.37 840.77 757.35 802.17 824.68C789.06 847.54 775.92 870.4 762.64 893.17C756.15 904.32 750.45 916.54 742.91 927C738.62 925.47 735.45 917.49 732.95 913.59C724.46 900.37 715.99 887.09 707.83 873.66C690.51 845.16 671.87 817.48 654.48 789.01C642.01 768.61 629.72 747.63 616.02 728.04C680.69 658.44 745.35 588.83 810.02 519.23Z" fill="#245508" stroke="#245508" stroke-width="1" stroke-linejoin="round" />
<path d="M616.02 728.04C501.83 794.69 387.65 861.35 273.46 928C273.71 926.67 273.96 925.33 274.21 924C277.01 923.07 277.97 919.54 279.38 916.85C282.72 910.51 285.9 904.08 289.22 897.72C302.28 872.74 315.22 847.67 328.07 822.58C359.32 761.6 390.96 700.82 422.46 639.97C443.16 599.99 463.06 559.53 484.5 519.93C528.34 589.3 572.18 658.67 616.02 728.04Z" fill="#2e5e12" stroke="#2e5e12" stroke-width="1" stroke-linejoin="round" />
<path d="M264.93 389.01C265.47 392.97 267.95 396.2 269.86 399.66C273.64 406.51 277.58 413.28 281.38 420.12C294.22 443.24 307.48 466.12 320.17 489.32C324.3 496.87 334.53 511.62 336.07 519.18C281.03 519.86 225.98 520.53 170.94 521.2C157.31 503.51 143.68 485.82 130.05 468.13C175.01 441.76 219.97 415.39 264.93 389.01ZM221.01 587.75C221.3 587.81 221.59 587.86 221.88 587.92C250.61 625.31 279.34 662.71 308.07 700.1C296.78 774.73 285.5 849.37 274.21 924C273.96 925.33 273.71 926.67 273.46 928C273.32 928.34 273.18 928.68 273.03 929.03C268.83 926.11 262.4 912.19 259.44 907.05C249.1 889.09 238.83 871.07 228.33 853.21C202.35 809.03 176.93 764.5 151.46 720.04C142.85 705.01 134.08 690.05 125.46 675.03C121.03 667.32 115.13 659.43 111.97 651.15C148.32 630.02 184.67 608.88 221.01 587.75Z" fill="#b0dc97" stroke="#b0dc97" stroke-width="1" stroke-linejoin="round" />
<path d="M650.05 169.04C714.69 272.7 779.33 376.36 843.97 480.02C740.62 447.62 637.26 415.21 533.9 382.8C533.6 382.51 533.31 382.21 533.01 381.92C572.02 310.96 611.04 240 650.05 169.04Z" fill="#6fca3a" stroke="#6fca3a" stroke-width="1" stroke-linejoin="round" />
<path d="M533.9 382.8C637.26 415.21 740.62 447.62 843.97 480.02C844.37 480.35 844.77 480.67 845.16 481C834.11 493.63 823.05 506.27 812 518.9C811.34 519.01 810.68 519.12 810.02 519.23C701.35 518.99 592.67 518.74 484 518.5C469.35 495.32 454.71 472.13 440.07 448.95C471.35 426.9 502.62 404.85 533.9 382.8Z" fill="#42a00b" stroke="#42a00b" stroke-width="1" stroke-linejoin="round" />
<path d="M271.96 116.07C272.34 115.99 272.72 115.91 273.11 115.84C273.12 118.11 273.29 117.75 274.5 119.16C314.36 131.1 354.36 142.59 394.24 154.37C405.56 157.7 416.84 161.14 428.17 164.43C433.05 165.85 438.44 168.45 443.53 168.83C457.3 169.87 471.67 168.72 485.5 168.72C521.16 168.72 556.84 168.45 592.5 168.83C611.18 169.03 630.28 167.47 648.87 169.02C554.62 222.44 460.37 275.86 366.12 329.28C365.75 329.23 365.37 329.18 364.99 329.13C334.49 259.61 304 190.08 273.5 120.55C273.03 122.34 272.57 124.13 272.1 125.91C272.05 122.63 272 119.35 271.96 116.07Z" fill="#d5eac9" stroke="#d5eac9" stroke-width="1" stroke-linejoin="round" />
<path d="M364.99 329.13C365.37 329.18 365.75 329.23 366.12 329.28C421.75 346.83 477.38 364.37 533.01 381.92C533.31 382.21 533.6 382.51 533.9 382.8C502.62 404.85 471.35 426.9 440.07 448.95C432.09 453.45 424.83 459.64 417.34 464.94C401.58 476.12 385.84 487.33 370.13 498.6C362.63 503.98 355.17 509.01 347.2 513.67C343.64 515.75 340.15 518.43 336.07 519.18C334.53 511.62 324.3 496.87 320.17 489.32C307.48 466.12 294.22 443.24 281.38 420.12C277.58 413.28 273.64 406.51 269.86 399.66C267.95 396.2 265.47 392.97 264.93 389.01C298.28 369.05 331.64 349.09 364.99 329.13ZM336.07 519.18C335.99 519.79 335.91 520.4 335.83 521.01C297.85 543.31 259.87 565.62 221.88 587.92C221.59 587.86 221.3 587.81 221.01 587.75C204.32 565.57 187.63 543.38 170.94 521.2C225.98 520.53 281.03 519.86 336.07 519.18Z" fill="#9ddd78" stroke="#9ddd78" stroke-width="1" stroke-linejoin="round" />
<path d="M648.87 169.02C649.27 169.03 649.66 169.04 650.05 169.04C611.04 240 572.02 310.96 533.01 381.92C477.38 364.37 421.75 346.83 366.12 329.28C460.37 275.86 554.62 222.44 648.87 169.02Z" fill="#8cd561" stroke="#8cd561" stroke-width="1" stroke-linejoin="round" />
<path d="M130.05 468.13C143.68 485.82 157.31 503.51 170.94 521.2C187.63 543.38 204.32 565.57 221.01 587.75C184.67 608.88 148.32 630.02 111.97 651.15C109.2 647.71 107.18 643.48 104.97 639.63C100.58 631.99 96.19 624.35 91.79 616.71C79.85 596 67.77 575.39 55.91 554.63C51.43 546.79 46.87 538.99 42.36 531.16C40.9 528.63 37.25 524.26 37.9 521.73C68.62 503.87 99.34 486 130.05 468.13Z" fill="#c4ebae" stroke="#c4ebae" stroke-width="1" stroke-linejoin="round" />
<path d="M364.99 329.13C332.29 322.59 299.59 316.04 266.88 309.5C268.62 248.3 270.36 187.11 272.1 125.91C272.57 124.13 273.03 122.34 273.5 120.55C304 190.08 334.49 259.61 364.99 329.13Z" fill="#d0efbe" stroke="#d0efbe" stroke-width="1" stroke-linejoin="round" />
</svg>
